<svg xmlns="http://www.w3.org/2000/svg" viewBox="0 0 200 200">
  <!-- App icon dark background -->
  <rect width="200" height="200" rx="40" fill="#080e1a"/>

  <!-- Pin shadow -->
  <ellipse cx="100" cy="178" rx="20" ry="5" fill="rgba(0,0,0,0.4)"/>

  <!-- GPS teardrop pin body -->
  <path d="M100 22 C65 22 38 49 38 84 C38 112 57 132 100 176 C143 132 162 112 162 84 C162 49 135 22 100 22 Z" fill="#0ea5e9"/>

  <!-- Gloss highlight -->
  <ellipse cx="82" cy="56" rx="15" ry="10" fill="rgba(255,255,255,0.16)" transform="rotate(-35 82 56)"/>

  <!-- Inner dark circle (lens window) -->
  <circle cx="100" cy="82" r="31" fill="#080e1a"/>

  <!-- Outer lens ring -->
  <circle cx="100" cy="82" r="24" fill="none" stroke="#0ea5e9" stroke-width="4" stroke-opacity="0.6"/>

  <!-- Camera shutter aperture — 3 blades -->
  <g transform="translate(100,82)">
    <line x1="-14" y1="0" x2="14" y2="0" stroke="white" stroke-width="3" stroke-linecap="round" stroke-opacity="0.55"/>
    <line x1="-7" y1="-12" x2="7" y2="12" stroke="white" stroke-width="3" stroke-linecap="round" stroke-opacity="0.55"/>
    <line x1="7" y1="-12" x2="-7" y2="12" stroke="white" stroke-width="3" stroke-linecap="round" stroke-opacity="0.55"/>
  </g>

  <!-- Center dot -->
  <circle cx="100" cy="82" r="6" fill="#0ea5e9"/>
  <circle cx="100" cy="82" r="3" fill="white"/>
</svg>
